<svg xmlns="http://www.w3.org/2000/svg" width="250" height="250" viewBox="0 0 250 250" fill="none">
<path d="M 248.12,248.72 L 1.56,248.72 L 1.56,1.28 L 248.12,1.28 L 248.12,248.72 Z" fill="#F1FEFF"/>
<path d="M 242.19,5.84 L 9.77,5.84 L 9.77,244.16 L 240.23,244.16 V 5.84 H 242.19 Z" stroke="#003E6B" stroke-width="0.7" stroke-miterlimit="10"/>
<path d="M 9.77,215.29 L 240.23,215.29" stroke="#003E6B" stroke-width="0.7" stroke-miterlimit="10"/>
<path d="M 10.08,205.12 L 239.92,205.12" stroke="#C5DEF0" stroke-width="0.7" stroke-miterlimit="10"/>
<path d="M 10.08,194.95 L 239.92,194.95" stroke="#C5DEF0" stroke-width="0.7" stroke-miterlimit="10"/>
<path d="M 10.08,184.79 L 239.92,184.79" stroke="#C5DEF0" stroke-width="0.7" stroke-miterlimit="10"/>
<path d="M 10.08,174.62 L 239.92,174.62" stroke="#C5DEF0" stroke-width="0.7" stroke-miterlimit="10"/>
<path d="M 10.08,164.46 L 239.92,164.46" stroke="#C5DEF0" stroke-width="0.7" stroke-miterlimit="10"/>
<path d="M 10.08,154.29 L 239.92,154.29" stroke="#C5DEF0" stroke-width="0.7" stroke-miterlimit="10"/>
<path d="M 10.08,144.12 L 240.23,144.12" stroke="#C5DEF0" stroke-width="0.7" stroke-miterlimit="10"/>
<path d="M 10.08,133.96 L 239.92,133.96" stroke="#C5DEF0" stroke-width="0.7" stroke-miterlimit="10"/>
<path d="M 10.08,123.79 L 239.92,123.79" stroke="#C5DEF0" stroke-width="0.7" stroke-miterlimit="10"/>
<path d="M 10.08,113.62 L 239.92,113.62" stroke="#C5DEF0" stroke-width="0.7" stroke-miterlimit="10"/>
<path d="M 10.08,103.46 L 239.92,103.46" stroke="#C5DEF0" stroke-width="0.7" stroke-miterlimit="10"/>
<path d="M 10.08,93.29 L 239.92,93.29" stroke="#C5DEF0" stroke-width="0.7" stroke-miterlimit="10"/>
<path d="M 10.08,83.12 L 239.92,83.12" stroke="#C5DEF0" stroke-width="0.7" stroke-miterlimit="10"/>
<path d="M 10.08,72.96 L 239.92,72.96" stroke="#C5DEF0" stroke-width="0.7" stroke-miterlimit="10"/>
<path d="M 10.08,62.79 L 239.92,62.79" stroke="#C5DEF0" stroke-width="0.7" stroke-miterlimit="10"/>
<path d="M 10.08,52.63 L 239.92,52.63" stroke="#C5DEF0" stroke-width="0.7" stroke-miterlimit="10"/>
<path d="M 10.08,42.46 L 240.23,42.46" stroke="#C5DEF0" stroke-width="0.7" stroke-miterlimit="10"/>
<path d="M 10.08,32.29 L 239.92,32.29" stroke="#C5DEF0" stroke-width="0.7" stroke-miterlimit="10"/>
<path d="M 10.08,22.13 L 239.92,22.13" stroke="#C5DEF0" stroke-width="0.7" stroke-miterlimit="10"/>
<path d="M 10.08,11.96 L 239.92,11.96" stroke="#C5DEF0" stroke-width="0.7" stroke-miterlimit="10"/>
<path d="M 20.23,5.84 L 20.23,215.13" stroke="#C5DEF0" stroke-width="0.7" stroke-miterlimit="10"/>
<path d="M 30.39,5.84 L 30.39,215.13" stroke="#C5DEF0" stroke-width="0.7" stroke-miterlimit="10"/>
<path d="M 40.55,5.84 L 40.55,215.13" stroke="#C5DEF0" stroke-width="0.7" stroke-miterlimit="10"/>
<path d="M 50.71,5.84 L 50.71,215.13" stroke="#C5DEF0" stroke-width="0.7" stroke-miterlimit="10"/>
<path d="M 60.88,5.84 L 60.88,215.13" stroke="#C5DEF0" stroke-width="0.7" stroke-miterlimit="10"/>
<path d="M 71.04,5.84 L 71.04,215.13" stroke="#C5DEF0" stroke-width="0.7" stroke-miterlimit="10"/>
<path d="M 81.21,5.84 L 81.21,215.13" stroke="#C5DEF0" stroke-width="0.7" stroke-miterlimit="10"/>
<path d="M 91.37,5.84 L 91.37,215.13" stroke="#C5DEF0" stroke-width="0.7" stroke-miterlimit="10"/>
<path d="M 101.53,5.84 L 101.53,215.13" stroke="#C5DEF0" stroke-width="0.7" stroke-miterlimit="10"/>
<path d="M 111.69,5.84 L 111.69,215.13" stroke="#C5DEF0" stroke-width="0.7" stroke-miterlimit="10"/>
<path d="M 121.86,5.84 L 121.86,215.13" stroke="#C5DEF0" stroke-width="0.7" stroke-miterlimit="10"/>
<path d="M 132.02,5.84 L 132.02,215.13" stroke="#C5DEF0" stroke-width="0.7" stroke-miterlimit="10"/>
<path d="M 142.18,5.84 L 142.18,215.13" stroke="#C5DEF0" stroke-width="0.7" stroke-miterlimit="10"/>
<path d="M 152.35,5.84 L 152.35,215.13" stroke="#C5DEF0" stroke-width="0.7" stroke-miterlimit="10"/>
<path d="M 162.51,5.84 L 162.51,215.13" stroke="#C5DEF0" stroke-width="0.7" stroke-miterlimit="10"/>
<path d="M 172.67,5.84 L 172.67,215.13" stroke="#C5DEF0" stroke-width="0.7" stroke-miterlimit="10"/>
<path d="M 182.84,5.84 L 182.84,215.13" stroke="#C5DEF0" stroke-width="0.7" stroke-miterlimit="10"/>
<path d="M 193,5.84 L 193,215.13" stroke="#C5DEF0" stroke-width="0.7" stroke-miterlimit="10"/>
<path d="M 203.16,5.84 L 203.16,215.13" stroke="#C5DEF0" stroke-width="0.7" stroke-miterlimit="10"/>
<path d="M 213.33,5.84 L 213.33,215.13" stroke="#C5DEF0" stroke-width="0.7" stroke-miterlimit="10"/>
<path d="M 223.49,5.84 L 223.49,215.13" stroke="#C5DEF0" stroke-width="0.7" stroke-miterlimit="10"/>
<path d="M 233.65,5.84 L 233.65,215.13" stroke="#C5DEF0" stroke-width="0.7" stroke-miterlimit="10"/>
<path d="M 13.67,221.73 H 18.07 L 22.83,234.68 L 28.31,221.73 H 31.97 L 24.63,239.21 H 20.32 L 13.67,221.73 Z" fill="#003E6B"/>
<path d="M 33.92,221.73 H 47.23 V 224.91 H 37.48 V 228.76 H 46.19 V 231.73 H 37.48 V 236.04 H 47.44 V 239.21 H 33.92 V 221.73 Z" fill="#003E6B"/>
<path d="M 50.71,221.73 H 58.26 C 63.53,221.73 65.16,224.8 65.16,227.77 C 65.16,229.97 64.15,232.15 61.75,233.28 L 65.32,239.21 H 60.91 L 58.05,234.1 H 54.48 V 239.21 H 50.71 V 221.73 Z M 58.16,230.92 C 60.7,230.92 61.43,229.08 61.43,227.77 C 61.43,226.26 60.59,224.7 58.36,224.7 H 54.48 V 230.92 H 58.16 Z" fill="#003E6B"/>
<path d="M 67.21,237.7 L 68.62,234.73 C 70.51,235.76 72.35,236.35 74.64,236.35 C 75.95,236.35 77.85,235.81 77.85,234.46 C 77.85,233.33 76.69,232.96 75.42,232.6 C 72.04,231.62 68.15,230.45 68.15,226.84 C 68.15,223.56 71.17,221.73 74.54,221.73 C 76.79,221.73 78.68,222.31 80.73,223.35 L 79.27,226.31 C 77.63,225.44 76.01,224.86 74.54,224.86 C 73.43,224.86 71.75,225.39 71.75,226.63 C 71.75,227.66 72.83,228.14 73.9,228.5 C 77.07,229.53 81.45,230.35 81.45,234.15 C 81.45,237.7 77.85,239.21 74.59,239.21 C 71.43,239.21 69.38,238.28 67.21,237.7 Z" fill="#003E6B"/>
<path d="M 83.6,237.81 L 84.82,234.84 C 86.29,235.71 87.66,236.35 89.6,236.35 C 91.65,236.35 93.28,235.43 93.28,233.82 C 93.28,232.47 92.01,231.73 89.91,231.73 H 87.71 V 229.14 L 91.18,224.7 H 84.66 V 221.73 H 96.51 V 224.07 L 92.63,229.19 C 95.74,229.45 97.11,231.57 97.11,233.87 C 97.11,237.05 94.25,239.21 90.12,239.21 C 87.61,239.21 85.82,238.63 83.6,237.81 Z" fill="#5193B7"/>
<path d="M 100.32,221.73 H 107.31 C 114.31,221.73 117.22,225.79 117.22,230.29 C 117.22,235.05 113.95,239.21 106.95,239.21 H 100.32 V 221.73 Z M 107.11,236.04 C 111.69,236.04 113.58,233.18 113.58,230.29 C 113.58,227.22 111.53,224.91 107.11,224.91 H 103.89 V 236.04 H 107.11 Z" fill="#003E6B"/>
<path d="M 122.7,232.75 L 116.54,221.73 H 120.75 L 125.38,230.13 L 129.86,221.73 H 133.97 L 126.78,232.91 V 239.21 H 122.7 V 232.75 Z" fill="#003E6B"/>
<path d="M 134.66,221.73 H 138.22 L 146.72,233.23 V 221.73 H 150.45 V 239.21 H 147.29 L 138.43,227.46 V 239.21 H 134.66 V 221.73 Z" fill="#003E6B"/>
<path d="M 159.62,221.73 H 163.93 L 171.27,239.21 H 167.2 L 165.62,235.1 H 157.66 L 155.98,239.21 H 151.9 L 159.62,221.73 Z M 164.55,232.34 L 161.54,224.65 L 158.32,232.34 H 164.55 Z" fill="#003E6B"/>
<path d="M 172.95,221.73 H 176.41 L 182.84,232.81 L 189.37,221.73 H 192.63 V 239.21 H 188.85 V 228.82 L 183.91,237.43 H 181.61 L 176.72,228.82 V 239.21 H 172.95 V 221.73 Z" fill="#003E6B"/>
<path d="M 196.1,221.73 H 199.88 V 239.21 H 196.1 V 221.73 Z" fill="#003E6B"/>
<path d="M 202.94,230.4 C 202.94,224.91 206.72,221.73 211.66,221.73 C 214.42,221.73 216.87,222.92 218.55,224.86 L 217.03,227.72 C 215.51,226.05 213.93,224.91 211.72,224.91 C 208.51,224.91 206.51,227.36 206.51,230.34 C 206.51,233.41 208.56,235.81 211.82,235.81 C 214.42,235.81 216.05,234.31 217.31,232.86 L 218.94,235.66 C 217.05,237.96 214.5,239.05 211.61,239.05 C 206.08,239.05 202.94,235.3 202.94,230.4 Z" fill="#003E6B"/>
<path d="M 220.86,237.7 L 222.28,234.73 C 224.17,235.76 226.01,236.35 228.29,236.35 C 229.61,236.35 231.5,235.81 231.5,234.46 C 231.5,233.33 230.34,232.96 229.07,232.6 C 225.7,231.62 221.81,230.45 221.81,226.84 C 221.81,223.56 224.82,221.73 228.19,221.73 C 230.45,221.73 232.34,222.31 234.39,223.35 L 232.92,226.31 C 231.29,225.44 229.66,224.86 228.19,224.86 C 227.08,224.86 225.4,225.39 225.4,226.63 C 225.4,227.66 226.48,228.14 227.55,228.5 C 230.72,229.53 235.1,230.35 235.1,234.15 C 235.1,237.7 231.5,239.21 228.24,239.21 C 225.08,239.21 223.03,238.28 220.86,237.7 Z" fill="#003E6B"/>
<path d="M 160.51,208.83 C 169.16,208.83 170.79,202.06 172.63,196.23 C 174.47,190.41 174.91,185.71 177.18,185.71 C 179.45,185.71 180.18,193.66 183.04,197.11 C 185.9,200.55 186.97,198.94 189.12,191.82 C 191.27,184.7 191.16,177.58 192.68,177.58 C 195.9,177.58 196.52,190.73 198.62,197.21 C 200.72,203.69 202.72,202.91 204.72,200.04 C 206.71,197.18 208.18,186.88 211.6,186.88 C 215.02,186.88 216.03,196.75 219.04,201.81 C 222.05,206.87 225.99,207.9 234.07,208.83 H 160.51 Z" stroke="#003E6B" stroke-width="0.7" stroke-miterlimit="10"/>
<path d="M 174.73,188.89 V 208.31" stroke="#003E6B" stroke-width="0.5" stroke-miterlimit="10"/>
<path d="M 177.69,185.71 V 208.31" stroke="#003E6B" stroke-width="0.5" stroke-miterlimit="10"/>
<path d="M 180.65,189.15 V 208.31" stroke="#003E6B" stroke-width="0.5" stroke-miterlimit="10"/>
<path d="M 184.58,197.32 V 208.31" stroke="#003E6B" stroke-width="0.5" stroke-miterlimit="10"/>
<path d="M 187.96,192.05 V 208.31" stroke="#003E6B" stroke-width="0.5" stroke-miterlimit="10"/>
<path d="M 191.42,183.61 V 208.31" stroke="#003E6B" stroke-width="0.5" stroke-miterlimit="10"/>
<path d="M 194.64,182.06 V 208.31" stroke="#003E6B" stroke-width="0.5" stroke-miterlimit="10"/>
<path d="M 197.85,193.08 V 208.31" stroke="#003E6B" stroke-width="0.5" stroke-miterlimit="10"/>
<path d="M 201.17,201.18 V 208.31" stroke="#003E6B" stroke-width="0.5" stroke-miterlimit="10"/>
<path d="M 204.95,200.04 V 208.31" stroke="#003E6B" stroke-width="0.5" stroke-miterlimit="10"/>
<path d="M 208.32,192.31 V 208.31" stroke="#003E6B" stroke-width="0.5" stroke-miterlimit="10"/>
<path d="M 211.69,188.11 V 208.31" stroke="#003E6B" stroke-width="0.5" stroke-miterlimit="10"/>
<path d="M 214.96,190.15 V 208.31" stroke="#003E6B" stroke-width="0.5" stroke-miterlimit="10"/>
<path d="M 218.63,198.94 V 208.31" stroke="#003E6B" stroke-width="0.5" stroke-miterlimit="10"/>
<path d="M 223.42,205.42 V 208.31" stroke="#003E6B" stroke-width="0.5" stroke-miterlimit="10"/>
<path d="M 231.29,208.31 L 234.91,209.5 L 231.29,211.11" stroke="#003E6B" stroke-width="0.7" stroke-miterlimit="10"/>
<path d="M 160.2,176.02 L 158.05,179.98" stroke="#003E6B" stroke-width="0.7" stroke-miterlimit="10"/>
<path d="M 160.31,176.6 V 208.83 H 231.81" stroke="#003E6B" stroke-width="1.09" stroke-miterlimit="10"/>
<path d="M 61.43,48.42 V 58.59" stroke="#003E6B" stroke-width="0.5" stroke-miterlimit="10"/>
<path d="M 62.75,34.46 V 58.22" stroke="#003E6B" stroke-width="0.5" stroke-miterlimit="10"/>
<path d="M 185.85,33.78 V 58.01" stroke="#003E6B" stroke-width="0.5" stroke-miterlimit="10"/>
<path d="M 189.53,60.73 H 233.97" stroke="#003E6B" stroke-width="0.5" stroke-miterlimit="10"/>
<path d="M 25.19,60.42 H 58.16" stroke="#003E6B" stroke-width="0.5" stroke-miterlimit="10"/>
<path d="M 142.18,171.07 H 233.18" stroke="#003E6B" stroke-width="0.7" stroke-miterlimit="10"/>
<path d="M 230.02,61.81 L 227.01,67.93 H 232.71 L 230.02,61.81 Z" fill="#003E6B"/>
<path d="M 229.18,64.41 V 168.93" stroke="#003E6B" stroke-width="0.7" stroke-miterlimit="10"/>
<path d="M 230.6,170.71 L 226.62,164.99 H 233.13 L 230.6,170.71 Z" fill="#003E6B"/>
<path d="M 124.45,6.92 L 123.03,12.43 H 125.94 L 124.45,6.92 Z" fill="#003E6B"/>
<path d="M 124.29,9.02 V 128.3" stroke="#003E6B" stroke-width="0.7" stroke-miterlimit="10"/>
<path d="M 124.45,186.83 L 119.23,184.38 V 188.48 L 124.45,186.83 Z" fill="#003E6B"/>
<path d="M 82.18,185.79 H 122.7" stroke="#003E6B" stroke-width="0.5" stroke-miterlimit="10"/>
<path d="M 78.71,188.91 L 84.72,185.79 L 81.04,183.66 L 78.71,188.91 Z" fill="#003E6B"/>
<path d="M 180.13,36.01 L 185.35,38.46 L 180.13,40.55 V 36.01 Z" fill="#003E6B"/>
<path d="M 181.71,38.15 H 67.05" stroke="#003E6B" stroke-width="0.5" stroke-miterlimit="10"/>
<path d="M 68.84,35.39 L 64.26,38.15 L 68.84,40.34 V 35.39 Z" fill="#003E6B"/>
<path d="M 150.72,48.89 L 155.94,51.34 L 150.72,53.43 V 48.89 Z" fill="#003E6B"/>
<path d="M 152.3,51.03 H 95.82" stroke="#003E6B" stroke-width="0.5" stroke-miterlimit="10"/>
<path d="M 97.61,48.89 L 91.37,51.03 L 96.75,53.74 L 97.61,48.89 Z" fill="#003E6B"/>
<path d="M 91.37,47.39 V 58.59" stroke="#003E6B" stroke-width="0.5" stroke-miterlimit="10"/>
<path d="M 157.94,47.39 V 58.59" stroke="#003E6B" stroke-width="0.5" stroke-miterlimit="10"/>
<path d="M 26.92,37.73 H 60.01" stroke="#003E6B" stroke-width="0.5" stroke-miterlimit="10"/>
<path d="M 44.69,20.91 V 53.64" stroke="#003E6B" stroke-width="0.5" stroke-miterlimit="10"/>
<path d="M 44.27,50.04 C 51.62,50.04 56.08,43.13 56.08,37.37 C 56.08,31.01 51.03,24.7 44.27,24.7 C 37.38,24.7 32.61,30.96 32.61,37.26 C 32.61,43.91 37.79,50.04 44.27,50.04 Z" stroke="#003E6B" stroke-width="0.7" stroke-miterlimit="10"/>
<path d="M 44.17,46.19 C 49.21,46.19 52.32,41.34 52.32,37.26 C 52.32,32.71 48.74,28.22 44.17,28.22 C 39.48,28.22 36.16,32.66 36.16,37.16 C 36.16,41.91 39.84,46.19 44.17,46.19 Z" stroke="#003E6B" stroke-width="0.5" stroke-miterlimit="10"/>
<path d="M 26.45,171.07 H 74.9" stroke="#003E6B" stroke-width="0.5" stroke-miterlimit="10" stroke-dasharray="5.67 1.42"/>
<path d="M 78.37,136.41 V 188.48" stroke="#003E6B" stroke-width="0.5" stroke-miterlimit="10" stroke-dasharray="5.67 1.42"/>
<path d="M 81.04,171.07 H 110.7" stroke="#003E6B" stroke-width="0.5" stroke-miterlimit="10" stroke-dasharray="5.67 1.42"/>
<path d="M 91.85,60.73 H 63.01 L 112.85,171.07 H 136.42 L 185.96,60.73 H 158.78 L 124.61,133.91 L 91.85,60.73 Z" fill="#5193B7" fill-opacity="0.8" stroke="#003E6B" stroke-width="2" stroke-miterlimit="10"/>
<path d="M 77.06,61.6 L 124.45,167.09 L 171.42,61.6" stroke="#003E6B" stroke-width="0.5" stroke-miterlimit="10" stroke-dasharray="2.83 1.42"/>
<path d="M 144.83,106.22 C 146.05,103.04 146.41,107.25 146.41,110.22 C 146.41,113.19 146.67,125.61 148.82,125.61 C 150.29,125.61 151.18,117.92 152.7,117.92 C 153.43,117.92 154.22,119.06 155.06,119.06 C 155.9,119.06 156.91,117.92 157.65,117.92 H 163.02 V 126.86 C 163.02,128.11 163.71,128.74 164.45,128.74 C 165.18,128.74 165.71,127.96 165.71,126.71 V 114.4 C 165.71,113.16 166.07,112.9 166.7,112.9 C 167.33,112.9 167.81,113.53 167.81,114.61 V 129.98 C 167.81,131.33 168.59,132.63 169.53,132.63 C 170.47,132.63 171.05,131.7 171.05,130.03 V 110.22 C 171.05,108.02 171.53,107.15 172.42,107.15 C 173.31,107.15 173.94,107.83 173.94,109.71 V 139.8 C 173.94,141.63 174.42,142.71 175.69,142.71 C 176.96,142.71 177.22,141.05 177.22,139.8 V 101.08 C 177.22,99.14 177.63,97.74 178.75,97.74 C 179.86,97.74 180.28,98.98 180.28,100.71 V 146.37 C 180.28,147.82 180.7,148.75 181.81,148.75 C 182.93,148.75 183.5,147.82 183.5,146.21 V 80.05 C 183.5,78.7 183.92,77.92 185.03,77.92 C 186.15,77.92 188.14,78.08 188.14,79.53 V 161.09 C 188.14,162.54 187.51,163.01 186.62,163.01 C 185.73,163.01 186.31,162.54 186.31,161.09 V 106.12 C 186.31,104.67 187.04,102.58 188.31,102.58 C 189.58,102.58 190.52,103.72 190.52,105.38 V 136.93 C 190.52,138.49 191.21,139.12 192.15,139.12 C 193.09,139.12 193.72,138.24 193.72,136.73 V 104.03 C 193.72,102.63 194.14,102.11 195.08,102.11 C 196.02,102.11 196.91,102.74 196.91,104.4 V 143.91 C 196.91,145.41 197.64,146.05 198.43,146.05 C 199.22,146.05 199.85,145.22 199.85,143.91 V 96.81 C 199.85,95.62 200.26,94.74 201.25,94.74 C 202.24,94.74 202.72,95.51 202.72,96.76 V 126.25 C 202.72,128.33 203.29,134.71 205.13,134.71 C 206.4,134.71 206.82,133.2 206.82,131.8 V 116.01 C 206.82,108.89 207.45,110.02 208.61,110.02 C 209.78,110.02 210.2,110.75 210.2,112.41 V 123.14 C 210.2,125.94 210.93,127.02 211.92,127.02 C 212.91,127.02 213.01,125.57 213.01,121.41 C 213.01,120.06 213.85,119.75 214.84,119.75 H 220.91 C 222.54,119.75 222.91,119.43 222.91,118.75 C 222.91,118.07 222.02,118.28 220.75,118.28 H 215.71 C 214.34,118.28 213.81,118.91 213.81,120.05" stroke="#003E6B" stroke-width="2" stroke-miterlimit="10"/>
<path d="M 16.63,189.69 H 48.58" stroke="#003E6B" stroke-width="0.5" stroke-miterlimit="10"/>
<path d="M 32.61,202.48 C 39.95,202.48 44.41,195.57 44.41,189.81 C 44.41,183.45 39.37,177.14 32.61,177.14 C 25.72,177.14 20.95,183.4 20.95,189.7 C 20.95,196.35 26.13,202.48 32.61,202.48 Z" stroke="#003E6B" stroke-width="0.7" stroke-miterlimit="10"/>
<path d="M 32.51,198.63 C 37.55,198.63 40.66,193.78 40.66,189.7 C 40.66,185.15 37.08,180.66 32.51,180.66 C 27.82,180.66 24.5,185.1 24.5,189.6 C 24.5,194.35 28.18,198.63 32.51,198.63 Z" stroke="#003E6B" stroke-width="0.5" stroke-miterlimit="10"/>
<path d="M 32.29,173.72 V 206.45" stroke="#003E6B" stroke-width="0.5" stroke-miterlimit="10"/>
<path d="M 32.03,60.73 V 119.75" stroke="#003E6B" stroke-width="0.5" stroke-miterlimit="10" stroke-dasharray="5.67 1.42"/>
<path d="M 9.77,120.32 L 15.14,121.15 V 119.48 L 9.77,120.32 Z" fill="#003E6B"/>
<path d="M 26.45,120.11 C 26.45,120.94 27.39,121.15 28.81,121.15 H 33.02 C 34.65,121.15 35.13,121.41 35.65,121.41 C 36.59,121.41 37.01,120.78 37.01,119.43 C 37.01,118.08 36.38,118.34 35.11,118.34 H 29.23 C 27.6,118.34 26.45,118.86 26.45,120.11 Z" fill="#003E6B"/>
<path d="M 36.65,118.81 V 126.4 C 36.65,127.53 37.22,128.11 38.01,128.11 C 38.8,128.11 39.32,127.43 39.32,126.19 V 115.46 C 39.32,113.74 39.69,112.13 40.75,112.13 C 41.81,112.13 42.44,113.06 42.44,114.72 V 132.21 C 42.44,133.82 43.28,134.65 44.01,134.65 C 44.75,134.65 45.59,133.62 45.59,132.21 V 108.12 C 45.59,106.51 46.01,106.15 46.85,106.15 C 47.69,106.15 48.53,106.78 48.53,108.33 V 144.01 C 48.53,145.62 49.05,146.4 49.89,146.4 C 50.73,146.4 51.31,145.57 51.31,144.01 V 96.92 C 51.31,95.31 51.78,94.63 52.72,94.63 C 53.66,94.63 54.29,95.41 54.29,96.81 V 137.14 C 54.29,138.75 54.92,139.43 55.71,139.43 C 56.5,139.43 57.13,138.5 57.13,137.14 V 80.21 C 57.13,78.76 57.75,78.29 58.64,78.29 C 59.53,78.29 60.16,79.02 60.16,80.21 V 160.62 C 60.16,162.12 59.53,162.65 58.69,162.65" stroke="#003E6B" stroke-width="2" stroke-miterlimit="10"/>
<path d="M 65.26,93.9 V 147.14 C 65.26,148.7 65.99,149.22 66.78,149.22 C 67.57,149.22 68.2,148.39 68.2,147.14 V 101.02 C 68.2,99.09 68.62,98.36 69.61,98.36 C 70.6,98.36 71.12,99.24 71.12,100.8 V 139.9 C 71.12,141.73 71.8,142.71 72.74,142.71 C 73.68,142.71 74.31,141.41 74.31,139.69 V 110.33 C 74.31,108.19 74.83,106.31 75.82,106.31 C 76.81,106.31 77.33,107.72 77.33,109.44 V 126.71 C 77.33,128.64 77.95,129.42 78.84,129.42 C 79.73,129.42 80.36,128.38 80.36,126.71 V 116.22 C 80.36,114.14 80.88,112.9 81.72,112.9 C 82.56,112.9 83.24,113.93 83.24,115.6 V 126.09 C 83.24,127.92 83.87,128.55 84.61,128.55 C 85.35,128.55 85.92,127.51 85.92,126.09 V 120.11 H 92.91 C 94.65,120.11 94.39,118.91 95.38,118.91 C 96.37,118.91 96.89,121.05 97.73,121.05 C 99.05,121.05 98.79,113.06 99.9,113.06 C 101.01,113.06 101.12,121.31 101.12,124.86 C 101.12,128.41 101.64,134.13 102.63,134.13 C 103.62,134.13 104.61,104.53 105.93,104.53 C 107.25,104.53 107.72,126.25 108.89,126.25 C 109.78,126.25 110.95,117.81 112.16,117.81 C 112.85,117.81 113.84,118.91 114.73,118.91" stroke="#C5DEF0" stroke-width="2" stroke-miterlimit="10"/>
</svg>